<mxfile host="app.diagrams.net" agent="Mozilla/5.0 (Windows NT 10.0; Win64; x64) AppleWebKit/537.36 (KHTML, like Gecko) Chrome/141.0.0.0 Safari/537.36 Edg/141.0.0.0" version="28.2.8">
  <diagram name="Seite-1" id="c8n6E-Mb9XZCBwrOopBu">
    <mxGraphModel dx="455" dy="650" grid="1" gridSize="10" guides="1" tooltips="1" connect="1" arrows="1" fold="1" page="1" pageScale="1" pageWidth="1169" pageHeight="827" math="0" shadow="0">
      <root>
        <mxCell id="0" />
        <mxCell id="1" parent="0" />
        <mxCell id="IXk6inn_GWTOs7Sqatzc-5" style="edgeStyle=orthogonalEdgeStyle;rounded=0;orthogonalLoop=1;jettySize=auto;html=1;entryX=0;entryY=0.5;entryDx=0;entryDy=0;" parent="1" source="IXk6inn_GWTOs7Sqatzc-1" target="IXk6inn_GWTOs7Sqatzc-2" edge="1">
          <mxGeometry relative="1" as="geometry" />
        </mxCell>
        <mxCell id="IXk6inn_GWTOs7Sqatzc-1" value="q0" style="ellipse;whiteSpace=wrap;html=1;aspect=fixed;" parent="1" vertex="1">
          <mxGeometry x="190" y="160" width="80" height="80" as="geometry" />
        </mxCell>
        <mxCell id="IXk6inn_GWTOs7Sqatzc-10" style="edgeStyle=orthogonalEdgeStyle;rounded=0;orthogonalLoop=1;jettySize=auto;html=1;entryX=0;entryY=0.5;entryDx=0;entryDy=0;" parent="1" source="IXk6inn_GWTOs7Sqatzc-2" target="IXk6inn_GWTOs7Sqatzc-9" edge="1">
          <mxGeometry relative="1" as="geometry" />
        </mxCell>
        <mxCell id="IXk6inn_GWTOs7Sqatzc-2" value="q1" style="ellipse;whiteSpace=wrap;html=1;aspect=fixed;" parent="1" vertex="1">
          <mxGeometry x="380" y="160" width="80" height="80" as="geometry" />
        </mxCell>
        <mxCell id="IXk6inn_GWTOs7Sqatzc-3" style="rounded=0;orthogonalLoop=1;jettySize=auto;html=1;exitX=0;exitY=0;exitDx=0;exitDy=0;entryX=1;entryY=0;entryDx=0;entryDy=0;curved=1;" parent="1" source="IXk6inn_GWTOs7Sqatzc-1" target="IXk6inn_GWTOs7Sqatzc-1" edge="1">
          <mxGeometry relative="1" as="geometry">
            <Array as="points">
              <mxPoint x="300" y="90" />
              <mxPoint x="160" y="90" />
            </Array>
          </mxGeometry>
        </mxCell>
        <mxCell id="IXk6inn_GWTOs7Sqatzc-4" value="a,&amp;nbsp;&lt;span style=&quot;text-align: start;&quot;&gt;⊥ / A&lt;/span&gt;&lt;div&gt;a, A / AA&amp;nbsp;&lt;/div&gt;" style="text;html=1;whiteSpace=wrap;strokeColor=none;fillColor=none;align=center;verticalAlign=middle;rounded=0;" parent="1" vertex="1">
          <mxGeometry x="200" y="90" width="60" height="30" as="geometry" />
        </mxCell>
        <mxCell id="IXk6inn_GWTOs7Sqatzc-6" value="b, A / BA" style="text;html=1;whiteSpace=wrap;strokeColor=none;fillColor=none;align=center;verticalAlign=middle;rounded=0;" parent="1" vertex="1">
          <mxGeometry x="290" y="170" width="60" height="30" as="geometry" />
        </mxCell>
        <mxCell id="IXk6inn_GWTOs7Sqatzc-7" style="rounded=0;orthogonalLoop=1;jettySize=auto;html=1;exitX=0;exitY=0;exitDx=0;exitDy=0;entryX=1;entryY=0;entryDx=0;entryDy=0;curved=1;" parent="1" source="IXk6inn_GWTOs7Sqatzc-2" target="IXk6inn_GWTOs7Sqatzc-2" edge="1">
          <mxGeometry relative="1" as="geometry">
            <Array as="points">
              <mxPoint x="420" y="90" />
            </Array>
          </mxGeometry>
        </mxCell>
        <mxCell id="IXk6inn_GWTOs7Sqatzc-8" value="b, B / BB" style="text;html=1;whiteSpace=wrap;strokeColor=none;fillColor=none;align=center;verticalAlign=middle;rounded=0;" parent="1" vertex="1">
          <mxGeometry x="390" y="100" width="60" height="30" as="geometry" />
        </mxCell>
        <mxCell id="IXk6inn_GWTOs7Sqatzc-15" style="edgeStyle=orthogonalEdgeStyle;rounded=0;orthogonalLoop=1;jettySize=auto;html=1;entryX=0;entryY=0.5;entryDx=0;entryDy=0;" parent="1" source="IXk6inn_GWTOs7Sqatzc-9" target="IXk6inn_GWTOs7Sqatzc-14" edge="1">
          <mxGeometry relative="1" as="geometry" />
        </mxCell>
        <mxCell id="IXk6inn_GWTOs7Sqatzc-9" value="q2" style="ellipse;whiteSpace=wrap;html=1;aspect=fixed;" parent="1" vertex="1">
          <mxGeometry x="550" y="160" width="80" height="80" as="geometry" />
        </mxCell>
        <mxCell id="IXk6inn_GWTOs7Sqatzc-11" value="c, B / e" style="text;html=1;whiteSpace=wrap;strokeColor=none;fillColor=none;align=center;verticalAlign=middle;rounded=0;" parent="1" vertex="1">
          <mxGeometry x="470" y="170" width="60" height="30" as="geometry" />
        </mxCell>
        <mxCell id="IXk6inn_GWTOs7Sqatzc-12" style="rounded=0;orthogonalLoop=1;jettySize=auto;html=1;exitX=0;exitY=0;exitDx=0;exitDy=0;entryX=1;entryY=0;entryDx=0;entryDy=0;curved=1;" parent="1" source="IXk6inn_GWTOs7Sqatzc-9" target="IXk6inn_GWTOs7Sqatzc-9" edge="1">
          <mxGeometry relative="1" as="geometry">
            <Array as="points">
              <mxPoint x="590" y="90" />
            </Array>
          </mxGeometry>
        </mxCell>
        <mxCell id="IXk6inn_GWTOs7Sqatzc-13" value="c, B / e" style="text;html=1;whiteSpace=wrap;strokeColor=none;fillColor=none;align=center;verticalAlign=middle;rounded=0;" parent="1" vertex="1">
          <mxGeometry x="560" y="100" width="60" height="30" as="geometry" />
        </mxCell>
        <mxCell id="IXk6inn_GWTOs7Sqatzc-19" style="edgeStyle=orthogonalEdgeStyle;rounded=0;orthogonalLoop=1;jettySize=auto;html=1;entryX=0;entryY=0.5;entryDx=0;entryDy=0;" parent="1" source="IXk6inn_GWTOs7Sqatzc-14" target="IXk6inn_GWTOs7Sqatzc-18" edge="1">
          <mxGeometry relative="1" as="geometry" />
        </mxCell>
        <mxCell id="IXk6inn_GWTOs7Sqatzc-14" value="q3" style="ellipse;whiteSpace=wrap;html=1;aspect=fixed;" parent="1" vertex="1">
          <mxGeometry x="710" y="160" width="80" height="80" as="geometry" />
        </mxCell>
        <mxCell id="IXk6inn_GWTOs7Sqatzc-16" style="rounded=0;orthogonalLoop=1;jettySize=auto;html=1;exitX=0;exitY=0;exitDx=0;exitDy=0;entryX=1;entryY=0;entryDx=0;entryDy=0;curved=1;" parent="1" source="IXk6inn_GWTOs7Sqatzc-14" target="IXk6inn_GWTOs7Sqatzc-14" edge="1">
          <mxGeometry relative="1" as="geometry">
            <Array as="points">
              <mxPoint x="750" y="90" />
            </Array>
          </mxGeometry>
        </mxCell>
        <mxCell id="IXk6inn_GWTOs7Sqatzc-17" value="d, A / e&lt;div&gt;d, A / AA&lt;/div&gt;" style="text;html=1;whiteSpace=wrap;strokeColor=none;fillColor=none;align=center;verticalAlign=middle;rounded=0;" parent="1" vertex="1">
          <mxGeometry x="720" y="100" width="60" height="30" as="geometry" />
        </mxCell>
        <mxCell id="IXk6inn_GWTOs7Sqatzc-18" value="q4" style="ellipse;whiteSpace=wrap;html=1;aspect=fixed;" parent="1" vertex="1">
          <mxGeometry x="870" y="160" width="80" height="80" as="geometry" />
        </mxCell>
        <mxCell id="IXk6inn_GWTOs7Sqatzc-21" value="e,&amp;nbsp;&lt;span style=&quot;text-align: start;&quot;&gt;⊥ / e&lt;/span&gt;" style="text;html=1;whiteSpace=wrap;strokeColor=none;fillColor=none;align=center;verticalAlign=middle;rounded=0;" parent="1" vertex="1">
          <mxGeometry x="800" y="170" width="60" height="30" as="geometry" />
        </mxCell>
        <mxCell id="IXk6inn_GWTOs7Sqatzc-22" value="q4" style="ellipse;whiteSpace=wrap;html=1;aspect=fixed;" parent="1" vertex="1">
          <mxGeometry x="875" y="165" width="70" height="70" as="geometry" />
        </mxCell>
        <mxCell id="IXk6inn_GWTOs7Sqatzc-23" value="Q: q0, q1, q2, q3, q4&lt;div&gt;E: {a, b, c, d}&lt;/div&gt;&lt;div&gt;T: {A, B}&lt;/div&gt;&lt;div&gt;q0: q0&lt;/div&gt;&lt;div&gt;&lt;span style=&quot;text-align: start;&quot;&gt;⊥&lt;/span&gt;&lt;/div&gt;&lt;div&gt;&lt;span style=&quot;text-align: start;&quot;&gt;F: q4&lt;/span&gt;&lt;/div&gt;" style="whiteSpace=wrap;html=1;aspect=fixed;" parent="1" vertex="1">
          <mxGeometry x="190" y="270" width="130" height="130" as="geometry" />
        </mxCell>
        <mxCell id="2X9mteT061M_xcu5tElt-1" value="" style="endArrow=classic;html=1;rounded=0;fontSize=12;startSize=8;endSize=8;curved=1;entryX=0;entryY=0.5;entryDx=0;entryDy=0;" edge="1" parent="1" target="IXk6inn_GWTOs7Sqatzc-1">
          <mxGeometry width="50" height="50" relative="1" as="geometry">
            <mxPoint x="120" y="200" as="sourcePoint" />
            <mxPoint x="170" y="210" as="targetPoint" />
          </mxGeometry>
        </mxCell>
      </root>
    </mxGraphModel>
  </diagram>
</mxfile>
